<?xml version="1.0" standalone="no"?>
<svg xmlns:xlink="http://www.w3.org/1999/xlink" id="wave" style="transform:rotate(0deg); transition: 0.3s" viewBox="0 0 1440 130" version="1.1" xmlns="http://www.w3.org/2000/svg"><defs><linearGradient id="sw-gradient-0" x1="0" x2="0" y1="1" y2="0"><stop stop-color="rgba(241, 241, 241, 1)" offset="0%"/><stop stop-color="rgba(241, 241, 241, 1)" offset="100%"/></linearGradient></defs><path style="transform:translate(0, 0px); opacity:1" fill="url(#sw-gradient-0)" d="M0,91L34.3,84.5C68.6,78,137,65,206,58.5C274.3,52,343,52,411,56.3C480,61,549,69,617,73.7C685.7,78,754,78,823,71.5C891.4,65,960,52,1029,45.5C1097.1,39,1166,39,1234,39C1302.9,39,1371,39,1440,47.7C1508.6,56,1577,74,1646,78C1714.3,82,1783,74,1851,73.7C1920,74,1989,82,2057,73.7C2125.7,65,2194,39,2263,36.8C2331.4,35,2400,56,2469,65C2537.1,74,2606,69,2674,73.7C2742.9,78,2811,91,2880,88.8C2948.6,87,3017,69,3086,69.3C3154.3,69,3223,87,3291,82.3C3360,78,3429,52,3497,54.2C3565.7,56,3634,87,3703,91C3771.4,95,3840,74,3909,56.3C3977.1,39,4046,26,4114,28.2C4182.9,30,4251,48,4320,65C4388.6,82,4457,100,4526,106.2C4594.3,113,4663,108,4731,91C4800,74,4869,43,4903,28.2L4937.1,13L4937.1,130L4902.9,130C4868.6,130,4800,130,4731,130C4662.9,130,4594,130,4526,130C4457.1,130,4389,130,4320,130C4251.4,130,4183,130,4114,130C4045.7,130,3977,130,3909,130C3840,130,3771,130,3703,130C3634.3,130,3566,130,3497,130C3428.6,130,3360,130,3291,130C3222.9,130,3154,130,3086,130C3017.1,130,2949,130,2880,130C2811.4,130,2743,130,2674,130C2605.7,130,2537,130,2469,130C2400,130,2331,130,2263,130C2194.3,130,2126,130,2057,130C1988.6,130,1920,130,1851,130C1782.9,130,1714,130,1646,130C1577.1,130,1509,130,1440,130C1371.4,130,1303,130,1234,130C1165.7,130,1097,130,1029,130C960,130,891,130,823,130C754.3,130,686,130,617,130C548.6,130,480,130,411,130C342.9,130,274,130,206,130C137.1,130,69,130,34,130L0,130Z"/></svg>